<svg xmlns="http://www.w3.org/2000/svg" viewBox="0 0 1000 1000"><defs><style>.cls-1{fill:#feb600;}.cls-2{fill:#5cb900;}.cls-3{fill:#60b700;}.cls-4{fill:#fe9300;}.cls-5{fill:#508e31;}.cls-6{fill:#508e30;}.cls-7{fill:#eefcd4;}.cls-8{fill:#f0fcd6;}.cls-9{fill:#fefefd;}.cls-10{fill:#fdfae9;}.cls-11{fill:#fdfaeb;}</style></defs><title>Mesa de trabajo 1</title><g id="Capa_2" data-name="Capa 2"><path class="cls-1" d="M325.85,362.33c7.8-42.51,23.71-82.05,44.28-119.82,3.64-6.66,7-15.33,15.88-3.12,5.37,7.41,8.65.25,10.73-4.44A591.17,591.17,0,0,1,471,111c7-9,14.69-17.41,22-26.12s13.69-9.89,22.48-.32c34.42,37.51,61.56,79.8,84.65,124.89,3.34,6.52,6.25,13.26,9.77,19.66,4.06,7.38,5.29,27.21,16.79,3.24,4-8.33,7.94,2.3,9.2,4.45,13.77,23.42,24.56,48.31,33.48,73.93,4.79,13.75,8.21,28,12.25,42,0,25.18,2.59,50.28,1.75,75.49-1.55,47.08-6.89,93.61-22.77,138.19-12,33.59-28.93,64.4-57.34,87.51-1.77,1.44-4.38,2-5.22,4.58a36.63,36.63,0,0,1,6.14-.88c3.08,0,7.12-.59,8,3.23,1.18,5.3-2.72,8.9-6.42,11.8C584.83,688.92,561,698,534.66,700.65a12.27,12.27,0,0,1-10.18-3.33L511.28,491.4c-.5-7.74-1.8-15.16-8-20.7-4.72,6.25-4.2,13.51-4.56,20.83-2.94,59.75-6.43,119.46-12.11,179-.84,8.87-.8,17.84-1.17,26.76-4.27,4.09-9.53,4.2-14.8,3.28-23.07-4-45-11-63.7-25.75-3.73-2.94-7.6-5.89-9-10.67-2-6.85,3.2-6.39,7.32-6.66,1.63-.1,2.13-.34,1.3-1.49a13.56,13.56,0,0,0-2.26-2.14c-64.12-56.24-77.55-131.88-80.8-211.36C322.43,415.76,324.37,389,325.85,362.33Z"/><path class="cls-2" d="M257.76,914c31.82-20,66.63-33.39,101.6-46.46,13.66-12.6,32.38-10.55,48.3-16.61,1.11-.42,2,.18,2.41,1.39a1,1,0,0,0,.08-.94c-1.07-1.73-2.75-.74-3.82-.42-19.51,5.8-39.29,10.05-59.71,10.81-31.32,3.66-61.09,13.73-91.06,22.71-20,6-39.37,13.79-59.08,20.62-4.31,1.49-11,3.73-12.69-.3-1.81-4.42,5.56-4.93,8.84-6.91,53.7-32.27,111.42-54.06,172.38-68.63,73.08-17.48,147-20,220.75-11,81.1,9.82,157.65,36,228.66,77.19,1.35.78,2.33,2.22,3.7,2.93,3.71,1.9,9.06,3.68,6.1,8.72-2.35,4-6.61-.55-9.3-1.62-44.75-17.78-91-30.72-137.69-41.94-4.53-1.09-9.31-1.16-14-1.7-20.39-.83-40.16-5-59.65-10.85-1.06-.32-2.91-1.4-3.75.43-.56,1.21.06,1.23,1-.34,1.78,1.14-.36-.7,1.45,0,16,5.91,34.64,3.92,48.31,16.51,31.62,12.14,63.61,23.45,92.5,41.65-8.29,8.75-22.87,11.26-33.19,3.83-3.52-2.55-6.16-2.12-9.44-2.8-23.08-4.82-47.23-2.4-69.78-12.47-7.52-3.36-18.74,1.35-28,0-12.67-1.86-27.15,6.36-38.25-7.17-1.79-2.18-9.84,1.15-15.11,1.11-31.08-.24-63.41-5.24-92.9,1.22-29.65,6.49-59.64-.4-88.52,9.26-14.48,4.85-30.57,4.74-45.82,7.17-17.52,2.8-34.59,7.6-52.1,10C265.1,920,258.11,924.11,257.76,914Z"/><path class="cls-3" d="M763,793.48c-12.5,1-25,.8-37.21-2.56,4.94-10.83,15.61-16.08,23.6-23.93,13.43-13.19,27.42-25.83,41.27-38.61,3.5-3.23,8.49-9.5,7-11-4.31-4.42-7.94,1.2-11.7,3.76q-34.93,23.72-70,47.17a70.05,70.05,0,0,1-6.7,3.54c-.39-1.86-1.33-3.78-1.1-5.56,8-61.3,33.6-112.27,89.15-143.4,44.63-25,93.85-31.71,144.46-29.71,5.07.2,9.87.29,8.19,7.72-16.55,73-43.79,139-115.89,175.08C811.88,787.13,788.22,793.59,763,793.48Z"/><path class="cls-2" d="M88.87,593.17c57.15,1.88,111,13.36,155.35,52.9,36,32.14,50.9,74.34,57.48,120.49.26,1.77,1.31,4.66-1.38,5.08-1.62.26-3.71-1.43-5.37-2.55q-35.65-24-71.21-48.14c-3.76-2.57-8.1-8.32-11.84-3.74-4.43,5.42,3.67,7.46,6.46,10.12,19.67,18.76,39.88,36.95,59.69,55.57,2.4,2.24,7.82,3.66,5.67,8.11-.79,1.64-5.7,1.45-8.77,1.83-77.54,9.68-150.22-32-186.92-107.4-11.92-24.52-19.9-50.4-26.4-76.92-3.29-13.43.69-16.8,13-15.43C79.34,593.61,84.13,593.17,88.87,593.17Z"/><path class="cls-4" d="M524.48,697.32a138.86,138.86,0,0,0,80-28.6c2.36-1.79,5.91-6.05,5.34-7-2.18-3.54-5.15.81-8,.56-4-.34-9.76,2.33-11.5-1.58-1.83-4.11,4.49-4.71,7.09-6.9,35-29.56,54.17-68.19,66.07-111.65,15.42-56.3,16.19-113.68,15.65-171.32-.06-6.06-2.19-12.68,2.51-18.19,1.33,6.67,2.5,13.37,4,20,1.05,4.58,1.37,11.86,4.08,13,5.61,2.33,3.76-6,6.81-8,7.56-5,6.11,4.2,6.64,5.79a382.36,382.36,0,0,1,16.59,73.35c7.07,55.7,4.77,111.16-12.4,165.05-14.37,45.07-33.6,88-67.53,122.18-18.46,18.6-41.91,23.39-66.63,15.39-25.61-8.29-42.54-26-49-52.69C523.46,703.79,524.34,700.47,524.48,697.32Z"/><path class="cls-4" d="M325.85,362.33c4.4,31.88-.3,64,2.17,95.85,4.61,59.5,15,117.46,53.47,166.23,8.8,11.17,18.35,21.56,30.26,29.57,2.55,1.72,6.31,3.78,4.92,7-.61,1.41-5.65.91-8.68,1.31-2.8.36-5.84-4.24-7.88-.42-.58,1.07,3.08,5.12,5.46,7a133.56,133.56,0,0,0,79.89,28.51c-1.43,28.44-19.28,52.22-47.74,61.83-28.63,9.67-55,3.76-74.45-20.46C322,687.35,297.63,628.78,289.52,563c-7.12-57.73-1.59-114,13-169.88a78.55,78.55,0,0,1,3.33-10.46c1-2.32,2.76-4.32,4.17-6.47,1.61,2,3.54,3.8,4.75,6s1.3,5.92,4.73,5.06c3.19-.81,1.37-4.39,1.92-6.7Q323.66,371.46,325.85,362.33Z"/><path class="cls-5" d="M257.76,914c1.28,3.47,4.3,5.63,7.35,4.24,19.3-8.82,40.55-8.43,60.38-13.24,37.8-9.17,76.48-6.79,113.65-13.35,32.28-5.7,63.55-2.08,95.17-4.13s63,5.64,94.74,7.45c25.49,1.46,52,6.38,77.23,12.26,12.93,3,24.08,7.4,36.8,2L761.33,920c-6.68,3.91-14,1.67-20.91,1.68q-240.64.27-481.29.1a103.23,103.23,0,0,1-10.62-1.07A17.52,17.52,0,0,1,257.76,914Z"/><path class="cls-6" d="M230,561.91c.87,7.63.15,13.39-8.89,5-3.2-3-7.2-4-9.64-1.06-2.7,3.25,2.19,4.78,3.85,7.08s5.71,4.59,3.82,7.61c-.79,1.27-5.72.24-8.7-.21-38.54-5.82-60.74-30.12-72.31-65.42-3.28-10-12.07-23.32-4.27-30.64,8-7.5,21.92-.52,32.83,2.82C206.21,499.17,229.27,526.45,230,561.91Z"/><path class="cls-6" d="M780.06,559.89c1.49-33.24,23.4-59.82,59.05-71.36,12.31-4,28.63-12.76,36.93-3.93,8.13,8.65-1.74,24.52-6.3,36.4-12.49,32.52-34.62,54.28-70.47,59.33-2.88.4-6.66,3.14-8.46,0-.8-1.42,2.22-5.24,3.87-7.72a61.42,61.42,0,0,1,5.8-7.19c1.51-1.66,2.79-3.63,1.43-5.48-2.13-2.91-4.53-1.25-6.56.56-1.57,1.4-3,2.94-4.54,4.36-2.63,2.42-5.07,7-8.63,5.76C777,568.72,781,563.32,780.06,559.89Z"/><path class="cls-6" d="M881.12,807.58c28-.27,50.2,12.82,70.57,30.27,4.55,3.89,4.9,7-.81,10.68-39.92,25.86-80.75,29.35-119.5,5.12-3-1.88-9-3.82-7.28-8.7,1.3-3.62,6.59-1.12,10-1.81a32.25,32.25,0,0,1,4.73-.21l22-1.07c-7.73-1.85-15.41-3.91-23.19-5.49-4.89-1-11.52.94-13.49-4.62-.59-1.68,6.07-6.34,9.83-9C849.35,811.74,862.63,807.61,881.12,807.58Z"/><path class="cls-6" d="M129.18,807.68c19.63-1.16,36.44,6.76,51.8,18.61,2,1.54,5.08,4,4.88,5.63-.43,3.55-4.57,3.62-7.44,3.92-9.4,1-18.85,1.5-28.26,2.41-1.31.13-3.44,1.35-3.57,2.3-.52,3.72,2.77,1.9,4.09,2,8.94.42,17.9.32,26.84.73,2.91.13,7.28-1.6,8.46,1.79,1.55,4.48-3.69,6-6.28,7.7-36.68,23.94-74,21.83-111.27,1.54-17.31-9.42-17.52-12.18-1.79-23.55C85.15,817.34,104.89,806.73,129.18,807.68Z"/><path class="cls-7" d="M346.62,861.72c20-7.79,41.3-9.22,62.28-12.1,1.58-.21,3.32.8,5,1.25-1.37.56-2.7,1.25-4.1,1.67q-25.21,7.51-50.43,15C358,859.12,351.1,863.13,346.62,861.72Z"/><path class="cls-8" d="M650.59,867.48q-25.22-7.46-50.41-14.93a42,42,0,0,1-4.08-1.66c1.66-.44,3.4-1.46,5-1.24,20.95,2.86,42.18,4.38,62.18,12.11C658.76,863.06,651.92,859.17,650.59,867.48Z"/><path class="cls-9" d="M644.2,452.89c-.89,45.64-36.82,86.1-81.09,92.67-.52.08-1,.13-1.56.2-8,.93-18.24,7.76-23.58.42-6.2-8.54-2.27-20.08,1.54-29.92,14-36.15,44.07-53.39,78.2-65.3,4.75-1.65,9.68-2,14.26-5.1C642.19,438.9,646.21,442.64,644.2,452.89Z"/><path class="cls-9" d="M378.75,443.81c.2-3.68.38-7.36.57-11,1.77,2.87,2.9,7.33,5.41,8.33,13.44,5.33,27.53,8.9,40.43,15.74,23.16,12.27,42.5,27.93,49.58,54.64,5.79,21.84,3.73,24.08-18.68,21.41C411.26,527.55,377.1,488.2,378.75,443.81Z"/><path class="cls-9" d="M637.85,546c-4.52,44.86-29.83,71.23-71.44,81.14-7.67,1.83-18.78,9.58-24.78.43s-.29-20.7,3.74-30.06c11.34-26.35,33.7-41.35,59.21-51.26,7.33-2.85,16-5.26,22.85-8.22C639.93,532.64,637.8,539,637.85,546Z"/><path class="cls-9" d="M523.77,429.12c3.17-29.38,20.27-48.47,44.68-63.73,16.29-10.19,36.29-11.15,51.48-23.33,2.68-2.15,1.63,2,1.77,3,4.86,33.63-20.7,74.09-54.19,86.62-10.37,3.88-21.44,4.77-31.7,7.79C523.34,443.11,523.48,437.84,523.77,429.12Z"/><path class="cls-9" d="M388,354.51c-2.65-10.34,2.37-8.05,10.4-5.74,30.88,8.91,59.62,20.61,77,50,5.62,9.52,9.49,19.69,10.45,30.83.69,7.95-2.67,11.43-10.86,11.53C431.67,441.7,388.23,399.19,388,354.51Z"/><path class="cls-9" d="M469.42,621.91c.38,4.26-1.09,8.25-8.29,8.85-42.95,3.59-90.88-42.82-89.31-86.33.27-7.68.69-8.75,9.17-5.95,25.62,8.46,50.69,16.9,69.22,38.2C461.21,589.33,467.3,603.75,469.42,621.91Z"/><path class="cls-9" d="M530.09,330.85c2.42,16.37-3.32,31.29-13.19,44.8-8.28,11.34-16.39,11.37-24.59-.11-21.3-29.83-16.48-60.93-3.56-92.13,2.76-6.67,6.77-12.81,9.72-19.41,1.89-4.24,2.9-8.86,4.31-13.31,2.71,4.22,5.92,8.21,8.07,12.7C521,284.54,532.41,305.34,530.09,330.85Z"/><path class="cls-10" d="M612,729.7l-4.3-2.45c.82-1.24,1.37-2.87,2.5-3.66,18-12.6,28.16-31.5,39.84-49.2,1.29-2,3.83-3.11,5.79-4.63.55,1.79,1.58,3.58,1.57,5.37,0,12.44-28.13,50-40,53.69A45,45,0,0,1,612,729.7Z"/><path class="cls-11" d="M349.49,656.57c.95,1.27,2.53,2.75,3.38,4.57,10.91,23.38,24.75,44.65,43.8,62.32,1.62,1.51,4.84,2.88,2.37,6.15-3.09,4.08-5.65.44-7.8-1-24-15.73-35.87-40-45.7-65.63C344.25,659.62,346.54,656.09,349.49,656.57Z"/></g></svg>